<svg xmlns="http://www.w3.org/2000/svg" width="1200" height="120" viewBox="0 0 1200 120" fill="none">
<defs>

</defs>
<rect width="1200" height="120" fill="none"/>
<circle cx="20" cy="60" r="6" fill="currentColor"/>
<circle cx="50" cy="60" r="6" fill="currentColor"/>
<circle cx="80" cy="60" r="6" fill="currentColor"/>
<circle cx="110" cy="60" r="6" fill="currentColor"/>
<circle cx="140" cy="60" r="6" fill="currentColor"/>
<circle cx="170" cy="60" r="6" fill="currentColor"/>
<circle cx="200" cy="60" r="6" fill="currentColor"/>
<circle cx="230" cy="60" r="6" fill="currentColor"/>
<circle cx="260" cy="60" r="6" fill="currentColor"/>
<circle cx="290" cy="60" r="6" fill="currentColor"/>
<circle cx="320" cy="60" r="6" fill="currentColor"/>
<circle cx="350" cy="60" r="6" fill="currentColor"/>
<circle cx="380" cy="60" r="6" fill="currentColor"/>
<circle cx="410" cy="60" r="6" fill="currentColor"/>
<circle cx="440" cy="60" r="6" fill="currentColor"/>
<circle cx="470" cy="60" r="6" fill="currentColor"/>
<circle cx="500" cy="60" r="6" fill="currentColor"/>
<circle cx="530" cy="60" r="6" fill="currentColor"/>
<circle cx="560" cy="60" r="6" fill="currentColor"/>
<circle cx="590" cy="60" r="6" fill="currentColor"/>
<circle cx="620" cy="60" r="6" fill="currentColor"/>
<circle cx="650" cy="60" r="6" fill="currentColor"/>
<circle cx="680" cy="60" r="6" fill="currentColor"/>
<circle cx="710" cy="60" r="6" fill="currentColor"/>
<circle cx="740" cy="60" r="6" fill="currentColor"/>
<circle cx="770" cy="60" r="6" fill="currentColor"/>
<circle cx="800" cy="60" r="6" fill="currentColor"/>
<circle cx="830" cy="60" r="6" fill="currentColor"/>
<circle cx="860" cy="60" r="6" fill="currentColor"/>
<circle cx="890" cy="60" r="6" fill="currentColor"/>
<circle cx="920" cy="60" r="6" fill="currentColor"/>
<circle cx="950" cy="60" r="6" fill="currentColor"/>
<circle cx="980" cy="60" r="6" fill="currentColor"/>
<circle cx="1010" cy="60" r="6" fill="currentColor"/>
<circle cx="1040" cy="60" r="6" fill="currentColor"/>
<circle cx="1070" cy="60" r="6" fill="currentColor"/>
<circle cx="1100" cy="60" r="6" fill="currentColor"/>
<circle cx="1130" cy="60" r="6" fill="currentColor"/>
<circle cx="1160" cy="60" r="6" fill="currentColor"/>
</svg>