<svg xmlns="http://www.w3.org/2000/svg" width="1200" height="120" viewBox="0 0 1200 120" fill="none">
<defs>

</defs>
<rect width="1200" height="120" fill="none"/>
<polyline points="0,50.0 30,52.0 60,53.9 90,55.8 120,57.4 150,58.9 180,60.1 210,61.0 240,61.7 270,62.0 300,61.9 330,61.6 360,60.9 390,59.9 420,58.7 450,57.2 480,55.5 510,53.6 540,51.7 570,49.7 600,47.7 630,45.8 660,44.0 690,42.3 720,40.9 750,39.7 780,38.9 810,38.3 840,38.0 870,38.1 900,38.5 930,39.2 960,40.2 990,41.5 1020,43.1 1050,44.8 1080,46.6 1110,48.6 1140,50.6 1170,52.6 1200,54.5" stroke="currentColor" stroke-width="4" fill="none" opacity="0.8"/>
<polyline points="0,80.1 30,81.0 60,81.7 90,82.0 120,81.9 150,81.6 180,80.9 210,79.9 240,78.7 270,77.2 300,75.5 330,73.6 360,71.7 390,69.7 420,67.7 450,65.8 480,64.0 510,62.3 540,60.9 570,59.7 600,58.9 630,58.3 660,58.0 690,58.1 720,58.5 750,59.2 780,60.2 810,61.5 840,63.1 870,64.8 900,66.6 930,68.6 960,70.6 990,72.6 1020,74.5 1050,76.3 1080,77.9 1110,79.3 1140,80.4 1170,81.3 1200,81.8" stroke="currentColor" stroke-width="4" fill="none" opacity="0.8"/>
</svg>