<svg xmlns="http://www.w3.org/2000/svg" width="1200" height="120" viewBox="0 0 1200 120" fill="none">
<defs>

</defs>
<rect width="1200" height="120" fill="none"/>
<rect x="4" y="8" width="1192" height="104" rx="8" fill="none" stroke="currentColor" stroke-width="8"/>
<rect x="20" y="16" width="20" height="20" fill="none" stroke="currentColor" stroke-width="4"/>
<rect x="80" y="16" width="20" height="20" fill="none" stroke="currentColor" stroke-width="4"/>
<rect x="140" y="16" width="20" height="20" fill="none" stroke="currentColor" stroke-width="4"/>
<rect x="200" y="16" width="20" height="20" fill="none" stroke="currentColor" stroke-width="4"/>
<rect x="260" y="16" width="20" height="20" fill="none" stroke="currentColor" stroke-width="4"/>
<rect x="320" y="16" width="20" height="20" fill="none" stroke="currentColor" stroke-width="4"/>
<rect x="380" y="16" width="20" height="20" fill="none" stroke="currentColor" stroke-width="4"/>
<rect x="440" y="16" width="20" height="20" fill="none" stroke="currentColor" stroke-width="4"/>
<rect x="500" y="16" width="20" height="20" fill="none" stroke="currentColor" stroke-width="4"/>
<rect x="560" y="16" width="20" height="20" fill="none" stroke="currentColor" stroke-width="4"/>
<rect x="620" y="16" width="20" height="20" fill="none" stroke="currentColor" stroke-width="4"/>
<rect x="680" y="16" width="20" height="20" fill="none" stroke="currentColor" stroke-width="4"/>
<rect x="740" y="16" width="20" height="20" fill="none" stroke="currentColor" stroke-width="4"/>
<rect x="800" y="16" width="20" height="20" fill="none" stroke="currentColor" stroke-width="4"/>
<rect x="860" y="16" width="20" height="20" fill="none" stroke="currentColor" stroke-width="4"/>
<rect x="920" y="16" width="20" height="20" fill="none" stroke="currentColor" stroke-width="4"/>
<rect x="980" y="16" width="20" height="20" fill="none" stroke="currentColor" stroke-width="4"/>
<rect x="1040" y="16" width="20" height="20" fill="none" stroke="currentColor" stroke-width="4"/>
<rect x="1100" y="16" width="20" height="20" fill="none" stroke="currentColor" stroke-width="4"/>
<rect x="1160" y="16" width="20" height="20" fill="none" stroke="currentColor" stroke-width="4"/>
<rect x="20" y="84" width="20" height="20" fill="none" stroke="currentColor" stroke-width="4"/>
<rect x="80" y="84" width="20" height="20" fill="none" stroke="currentColor" stroke-width="4"/>
<rect x="140" y="84" width="20" height="20" fill="none" stroke="currentColor" stroke-width="4"/>
<rect x="200" y="84" width="20" height="20" fill="none" stroke="currentColor" stroke-width="4"/>
<rect x="260" y="84" width="20" height="20" fill="none" stroke="currentColor" stroke-width="4"/>
<rect x="320" y="84" width="20" height="20" fill="none" stroke="currentColor" stroke-width="4"/>
<rect x="380" y="84" width="20" height="20" fill="none" stroke="currentColor" stroke-width="4"/>
<rect x="440" y="84" width="20" height="20" fill="none" stroke="currentColor" stroke-width="4"/>
<rect x="500" y="84" width="20" height="20" fill="none" stroke="currentColor" stroke-width="4"/>
<rect x="560" y="84" width="20" height="20" fill="none" stroke="currentColor" stroke-width="4"/>
<rect x="620" y="84" width="20" height="20" fill="none" stroke="currentColor" stroke-width="4"/>
<rect x="680" y="84" width="20" height="20" fill="none" stroke="currentColor" stroke-width="4"/>
<rect x="740" y="84" width="20" height="20" fill="none" stroke="currentColor" stroke-width="4"/>
<rect x="800" y="84" width="20" height="20" fill="none" stroke="currentColor" stroke-width="4"/>
<rect x="860" y="84" width="20" height="20" fill="none" stroke="currentColor" stroke-width="4"/>
<rect x="920" y="84" width="20" height="20" fill="none" stroke="currentColor" stroke-width="4"/>
<rect x="980" y="84" width="20" height="20" fill="none" stroke="currentColor" stroke-width="4"/>
<rect x="1040" y="84" width="20" height="20" fill="none" stroke="currentColor" stroke-width="4"/>
<rect x="1100" y="84" width="20" height="20" fill="none" stroke="currentColor" stroke-width="4"/>
<rect x="1160" y="84" width="20" height="20" fill="none" stroke="currentColor" stroke-width="4"/>
</svg>