<svg xmlns="http://www.w3.org/2000/svg" width="1200" height="120" viewBox="0 0 1200 120" fill="none">
<defs>

</defs>
<rect width="1200" height="120" fill="none"/>
<polyline points="60.0,60.0 61.2,60.0 62.4,60.1 63.6,60.1 64.8,60.2 66.0,60.3 67.2,60.4 68.4,60.6 69.6,60.6 70.8,60.7 72.0,60.7 73.2,60.7 74.4,60.6 75.6,60.5 76.8,60.4 78.0,60.2 79.2,59.9 80.4,59.7 81.6,59.4 82.8,59.1 84.0,58.8 85.2,58.5 86.4,58.3 87.6,58.2 88.8,58.1 90.0,58.1 91.2,58.2 92.4,58.3 93.6,58.6 94.8,58.9 96.0,59.3 97.2,59.8 98.4,60.3 99.6,60.8 100.8,61.3 102.0,61.8 103.2,62.3 104.4,62.7 105.6,62.9 106.8,63.1 108.0,63.2 109.2,63.1 110.4,62.9 111.6,62.5 112.8,62.1 114.0,61.5 115.2,60.8 116.4,60.1 117.6,59.3 118.8,58.6 120.0,57.8 121.2,57.1 122.4,56.6 123.6,56.1 124.8,55.8 126.0,55.6 127.2,55.6 128.4,55.8 129.6,56.2 130.8,56.7 132.0,57.4 133.2,58.3 134.4,59.2 135.6,60.2 136.8,61.2 138.0,62.2 139.2,63.1 140.4,64.0 141.6,64.7 142.8,65.2 144.0,65.5 145.2,65.7 146.4,65.6 147.6,65.2 148.8,64.7 150.0,63.9 151.2,63.0 152.4,61.9 153.6,60.7 154.8,59.4 156.0,58.2 157.2,56.9 158.4,55.8 159.6,54.8 160.8,54.0 162.0,53.5 163.2,53.1 164.4,53.1 165.6,53.3 166.8,53.8 168.0,54.6 169.2,55.6 170.4,56.8 171.6,58.2 172.8,59.6 174.0,61.1 175.2,62.6 176.4,64.1 177.6,65.3 178.8,66.4 180.0,67.3 181.2,67.9 182.4,68.2 183.6,68.1 184.8,67.7 186.0,67.0 187.2,66.0 188.4,64.8 189.6,63.3 190.8,61.7 192.0,59.9 193.2,58.2 194.4,56.4 195.6,54.8 196.8,53.4 198.0,52.2 199.2,51.3 200.4,50.8 201.6,50.6 202.8,50.7 204.0,51.3 205.2,52.2 206.4,53.5 207.6,55.0 208.8,56.8 210.0,58.7 211.2,60.7 212.4,62.7 213.6,64.6 214.8,66.4 216.0,67.9 217.2,69.2 218.4,70.1 219.6,70.6 220.8,70.7 222.0,70.3 223.2,69.6 224.4,68.4 225.6,66.9 226.8,65.1 228.0,63.0 229.2,60.8 230.4,58.6 231.6,56.3 232.8,54.2 234.0,52.3 235.2,50.7 236.4,49.4 237.6,48.5 238.8,48.1 240.0,48.1 241.2,48.7 242.4,49.7 243.6,51.1 244.8,52.9 246.0,55.0 247.2,57.3 248.4,59.8 249.6,62.3 250.8,64.8 252.0,67.1 253.2,69.1 254.4,70.8 255.6,72.1 256.8,72.9 258.0,73.2 259.2,73.0 260.4,72.2 261.6,71.0 262.8,69.3 264.0,67.2 265.2,64.8 266.4,62.2 267.6,59.4 268.8,56.7 270.0,54.0 271.2,51.6 272.4,49.4 273.6,47.7 274.8,46.4 276.0,45.7 277.2,45.6 278.4,46.0 279.6,47.0 280.8,48.5 282.0,50.5 283.2,52.9 284.4,55.6 285.6,58.5 286.8,61.5 288.0,64.5 289.2,67.3 290.4,69.9 291.6,72.1 292.8,73.8 294.0,75.0 295.2,75.6 296.4,75.6 297.6,75.0 298.8,73.7" stroke="currentColor" stroke-width="4" fill="none"/>
</svg>