<svg xmlns="http://www.w3.org/2000/svg" width="1200" height="120" viewBox="0 0 1200 120" fill="none">
<defs>

</defs>
<rect width="1200" height="120" fill="none"/>
<path d="M40 60 l10 0 m-5 -5 l0 10" stroke="currentColor" stroke-width="6" stroke-linecap="round"/>
<path d="M120 60 l10 0 m-5 -5 l0 10" stroke="currentColor" stroke-width="6" stroke-linecap="round"/>
<path d="M200 60 l10 0 m-5 -5 l0 10" stroke="currentColor" stroke-width="6" stroke-linecap="round"/>
<path d="M280 60 l10 0 m-5 -5 l0 10" stroke="currentColor" stroke-width="6" stroke-linecap="round"/>
<path d="M360 60 l10 0 m-5 -5 l0 10" stroke="currentColor" stroke-width="6" stroke-linecap="round"/>
<path d="M440 60 l10 0 m-5 -5 l0 10" stroke="currentColor" stroke-width="6" stroke-linecap="round"/>
<path d="M520 60 l10 0 m-5 -5 l0 10" stroke="currentColor" stroke-width="6" stroke-linecap="round"/>
<path d="M600 60 l10 0 m-5 -5 l0 10" stroke="currentColor" stroke-width="6" stroke-linecap="round"/>
<path d="M680 60 l10 0 m-5 -5 l0 10" stroke="currentColor" stroke-width="6" stroke-linecap="round"/>
<path d="M760 60 l10 0 m-5 -5 l0 10" stroke="currentColor" stroke-width="6" stroke-linecap="round"/>
<path d="M840 60 l10 0 m-5 -5 l0 10" stroke="currentColor" stroke-width="6" stroke-linecap="round"/>
<path d="M920 60 l10 0 m-5 -5 l0 10" stroke="currentColor" stroke-width="6" stroke-linecap="round"/>
<path d="M1000 60 l10 0 m-5 -5 l0 10" stroke="currentColor" stroke-width="6" stroke-linecap="round"/>
<path d="M1080 60 l10 0 m-5 -5 l0 10" stroke="currentColor" stroke-width="6" stroke-linecap="round"/>
<path d="M1160 60 l10 0 m-5 -5 l0 10" stroke="currentColor" stroke-width="6" stroke-linecap="round"/>
</svg>