<svg xmlns="http://www.w3.org/2000/svg" width="1200" height="120" viewBox="0 0 1200 120" fill="none">
<defs>

</defs>
<rect width="1200" height="120" fill="none"/>
<polyline points="0,60.0 20,63.3 40,66.5 60,69.6 80,72.4 100,74.8 120,76.8 140,78.4 160,79.4 180,79.9 200,79.9 220,79.3 240,78.2 260,76.6 280,74.5 300,72.0 320,69.1 340,66.1 360,62.8 380,59.5 400,56.2 420,53.0 440,50.0 460,47.2 480,44.9 500,42.9 520,41.4 540,40.4 560,40.0 580,40.1 600,40.8 620,42.0 640,43.7 660,45.9 680,48.4 700,51.3 720,54.4 740,57.7 760,61.0 780,64.3 800,67.5 820,70.5 840,73.1 860,75.5 880,77.3 900,78.8 920,79.7 940,80.0 960,79.8 980,79.0 1000,77.7 1020,76.0 1040,73.8 1060,71.2 1080,68.2 1100,65.1 1120,61.8 1140,58.5 1160,55.2 1180,52.1 1200,49.1" stroke="currentColor" stroke-width="6" fill="none" stroke-linecap="round"/>
</svg>