<svg xmlns="http://www.w3.org/2000/svg" width="1200" height="120" viewBox="0 0 1200 120" fill="none">
<defs>

</defs>
<rect width="1200" height="120" fill="none"/>
<polyline points="0,40 20,80 40,40 60,80 80,40 100,80 120,40 140,80 160,40 180,80 200,40 220,80 240,40 260,80 280,40 300,80 320,40 340,80 360,40 380,80 400,40 420,80 440,40 460,80 480,40 500,80 520,40 540,80 560,40 580,80 600,40 620,80 640,40 660,80 680,40 700,80 720,40 740,80 760,40 780,80 800,40 820,80 840,40 860,80 880,40 900,80 920,40 940,80 960,40 980,80 1000,40 1020,80 1040,40 1060,80 1080,40 1100,80 1120,40 1140,80 1160,40 1180,80 1200,40" stroke="currentColor" stroke-width="6" fill="none" stroke-linejoin="round"/>
</svg>