<svg xmlns="http://www.w3.org/2000/svg" width="2880" height="1200" viewBox="0 0 2880 1200" fill="none">
<defs>
<linearGradient id="lg1" x1="0" y1="0" x2="1" y2="1"><stop offset="0%" stop-color="#F5F2EA" stop-opacity="1"/>
<stop offset="100%" stop-color="#FFFFFF" stop-opacity="1"/></linearGradient>
</defs>
<rect width="2880" height="1200" fill="url(#lg1)"/>
<path d="M 0 240.00 L 0 240.00 L 40 245.89 L 80 251.13 L 120 255.15 L 160 257.49 L 200 257.92 L 240 256.37 L 280 253.02 L 320 248.23 L 360 242.54 L 400 236.57 L 440 230.98 L 480 226.38 L 520 223.28 L 560 222.02 L 600 222.74 L 640 225.36 L 680 229.59 L 720 234.97 L 760 240.90 L 800 246.73 L 840 251.83 L 880 255.61 L 920 257.69 L 960 257.81 L 1000 255.97 L 1040 252.38 L 1080 247.42 L 1120 241.64 L 1160 235.69 L 1200 230.21 L 1240 225.80 L 1280 222.96 L 1320 222.00 L 1360 223.02 L 1400 225.90 L 1440 230.34 L 1480 235.84 L 1520 241.80 L 1560 247.56 L 1600 252.49 L 1640 256.04 L 1680 257.83 L 1720 257.65 L 1760 255.54 L 1800 251.71 L 1840 246.59 L 1880 240.74 L 1920 234.82 L 1960 229.46 L 2000 225.27 L 2040 222.69 L 2080 222.03 L 2120 223.34 L 2160 226.48 L 2200 231.12 L 2240 236.73 L 2280 242.70 L 2320 248.37 L 2360 253.13 L 2400 256.43 L 2440 257.93 L 2480 257.46 L 2520 255.06 L 2560 251.01 L 2600 245.74 L 2640 239.84 L 2680 233.96 L 2720 228.74 L 2760 224.77 L 2800 222.47 L 2840 222.10 L 2880 223.70" stroke="#FFB86B" stroke-opacity="0.100" stroke-width="2" fill="none"/>
<path d="M 0 320.00 L 0 337.67 L 40 340.41 L 80 340.90 L 120 339.10 L 160 335.18 L 200 329.60 L 240 322.96 L 280 316.00 L 320 309.47 L 360 304.11 L 400 300.49 L 440 299.02 L 480 299.86 L 520 302.92 L 560 307.86 L 600 314.13 L 640 321.05 L 680 327.86 L 720 333.80 L 760 338.22 L 800 340.63 L 840 340.78 L 880 338.63 L 920 334.44 L 960 328.65 L 1000 321.92 L 1040 314.97 L 1080 308.58 L 1120 303.44 L 1160 300.13 L 1200 299.00 L 1240 300.19 L 1280 303.55 L 1320 308.73 L 1360 315.15 L 1400 322.10 L 1440 328.82 L 1480 334.57 L 1520 338.72 L 1560 340.80 L 1600 340.60 L 1640 338.12 L 1680 333.66 L 1720 327.68 L 1760 320.87 L 1800 313.95 L 1840 307.71 L 1880 302.81 L 1920 299.81 L 1960 299.03 L 2000 300.56 L 2040 304.23 L 2080 309.63 L 2120 316.18 L 2160 323.15 L 2200 329.77 L 2240 335.31 L 2280 339.17 L 2320 340.92 L 2360 340.37 L 2400 337.57 L 2440 332.84 L 2480 326.70 L 2520 319.81 L 2560 312.95 L 2600 306.87 L 2640 302.23 L 2680 299.55 L 2720 299.12 L 2760 300.98 L 2800 304.94 L 2840 310.56 L 2880 317.22" stroke="#FFB86B" stroke-opacity="0.092" stroke-width="2" fill="none"/>
<path d="M 0 400.00 L 0 421.82 L 40 417.35 L 80 410.97 L 120 403.39 L 160 395.43 L 200 387.97 L 240 381.84 L 280 377.70 L 320 376.03 L 360 376.99 L 400 380.48 L 440 386.12 L 480 393.29 L 520 401.20 L 560 408.98 L 600 415.77 L 640 420.82 L 680 423.58 L 720 423.74 L 760 421.30 L 800 416.50 L 840 409.89 L 880 402.19 L 920 394.25 L 960 386.94 L 1000 381.07 L 1040 377.29 L 1080 376.00 L 1120 377.36 L 1160 381.20 L 1200 387.12 L 1240 394.46 L 1280 402.40 L 1320 410.08 L 1360 416.65 L 1400 421.39 L 1440 423.77 L 1480 423.54 L 1520 420.71 L 1560 415.61 L 1600 408.78 L 1640 400.99 L 1680 393.09 L 1720 385.95 L 1760 380.36 L 1800 376.93 L 1840 376.04 L 1880 377.78 L 1920 381.98 L 1960 388.15 L 2000 395.64 L 2040 403.60 L 2080 411.16 L 2120 417.50 L 2160 421.91 L 2200 423.91 L 2240 423.28 L 2280 420.08 L 2320 414.67 L 2360 407.65 L 2400 399.79 L 2440 391.95 L 2480 384.99 L 2520 379.69 L 2560 376.62 L 2600 376.13 L 2640 378.27 L 2680 382.79 L 2720 389.21 L 2760 396.82 L 2800 404.78 L 2840 412.21 L 2880 418.30" stroke="#FFB86B" stroke-opacity="0.084" stroke-width="2" fill="none"/>
<path d="M 0 480.00 L 0 483.81 L 40 474.85 L 80 466.47 L 120 459.57 L 160 454.92 L 200 453.03 L 240 454.11 L 280 458.04 L 320 464.39 L 360 472.46 L 400 481.35 L 440 490.10 L 480 497.74 L 520 503.42 L 560 506.53 L 600 506.71 L 640 503.96 L 680 498.56 L 720 491.13 L 760 482.47 L 800 473.53 L 840 465.31 L 880 458.71 L 920 454.45 L 960 453.00 L 1000 454.53 L 1040 458.86 L 1080 465.51 L 1120 473.76 L 1160 482.70 L 1200 491.34 L 1240 498.74 L 1280 504.07 L 1320 506.75 L 1360 506.48 L 1400 503.30 L 1440 497.56 L 1480 489.88 L 1520 481.11 L 1560 472.23 L 1600 464.19 L 1640 457.90 L 1680 454.04 L 1720 453.04 L 1760 455.01 L 1800 459.72 L 1840 466.67 L 1880 475.09 L 1920 484.05 L 1960 492.56 L 2000 499.69 L 2040 504.65 L 2080 506.90 L 2120 506.19 L 2160 502.59 L 2200 496.51 L 2240 488.61 L 2280 479.76 L 2320 470.94 L 2360 463.12 L 2400 457.15 L 2440 453.70 L 2480 453.15 L 2520 455.55 L 2560 460.64 L 2600 467.87 L 2640 476.43 L 2680 485.38 L 2720 493.74 L 2760 500.59 L 2800 505.17 L 2840 506.98 L 2880 505.82" stroke="#FFB86B" stroke-opacity="0.076" stroke-width="2" fill="none"/>
<path d="M 0 560.00 L 0 537.30 L 40 532.13 L 80 530.03 L 120 531.23 L 160 535.60 L 200 542.65 L 240 551.62 L 280 561.50 L 320 571.22 L 360 579.71 L 400 586.02 L 440 589.48 L 480 589.68 L 520 586.62 L 560 580.63 L 600 572.36 L 640 562.74 L 680 552.81 L 720 543.68 L 760 536.34 L 800 531.61 L 840 530.00 L 880 531.70 L 920 536.51 L 960 543.90 L 1000 553.07 L 1040 563.00 L 1080 572.61 L 1120 580.82 L 1160 586.74 L 1200 589.72 L 1240 589.42 L 1280 585.89 L 1320 579.51 L 1360 570.98 L 1400 561.24 L 1440 551.36 L 1480 542.44 L 1520 535.45 L 1560 531.16 L 1600 530.04 L 1640 532.23 L 1680 537.47 L 1720 545.19 L 1760 554.54 L 1800 564.50 L 1840 573.95 L 1880 581.88 L 1920 587.39 L 1960 589.89 L 2000 589.09 L 2040 585.10 L 2080 578.34 L 2120 569.56 L 2160 559.73 L 2200 549.93 L 2240 541.24 L 2280 534.61 L 2320 530.78 L 2360 530.16 L 2400 532.83 L 2440 538.49 L 2480 546.52 L 2520 556.03 L 2560 565.98 L 2600 575.27 L 2640 582.88 L 2680 587.97 L 2720 589.98 L 2760 588.69 L 2800 584.24 L 2840 577.13 L 2880 568.13" stroke="#FFB86B" stroke-opacity="0.068" stroke-width="2" fill="none"/>
<path d="M 0 640.00 L 0 608.36 L 40 613.16 L 80 620.92 L 120 630.78 L 160 641.65 L 200 652.35 L 240 661.68 L 280 668.63 L 320 672.42 L 360 672.65 L 400 669.28 L 440 662.69 L 480 653.60 L 520 643.01 L 560 632.10 L 600 622.05 L 640 613.98 L 680 608.77 L 720 607.00 L 760 608.86 L 800 614.16 L 840 622.29 L 880 632.38 L 920 643.30 L 960 653.87 L 1000 662.90 L 1040 669.41 L 1080 672.69 L 1120 672.37 L 1160 668.48 L 1200 661.46 L 1240 652.08 L 1280 641.36 L 1320 630.50 L 1360 620.68 L 1400 612.99 L 1440 608.27 L 1480 607.05 L 1520 609.45 L 1560 615.22 L 1600 623.71 L 1640 634.00 L 1680 644.95 L 1720 655.35 L 1760 664.06 L 1800 670.13 L 1840 672.88 L 1880 672.00 L 1920 667.61 L 1960 660.18 L 2000 650.52 L 2040 639.71 L 2080 628.93 L 2120 619.37 L 2160 612.07 L 2200 607.86 L 2240 607.18 L 2280 610.12 L 2320 616.34 L 2360 625.17 L 2400 635.63 L 2440 646.58 L 2480 656.79 L 2520 665.16 L 2560 670.76 L 2600 672.98 L 2640 671.56 L 2680 666.67 L 2720 658.84 L 2760 648.94 L 2800 638.05 L 2840 627.38 L 2880 618.10" stroke="#FFB86B" stroke-opacity="0.060" stroke-width="2" fill="none"/>
<path d="M 0 720.00 L 0 709.94 L 40 721.80 L 80 733.47 L 120 743.65 L 160 751.23 L 200 755.37 L 240 755.62 L 280 751.94 L 320 744.75 L 360 734.84 L 400 723.29 L 440 711.38 L 480 700.42 L 520 691.61 L 560 685.93 L 600 684.00 L 640 686.03 L 680 691.81 L 720 700.68 L 760 711.69 L 800 723.60 L 840 735.13 L 880 744.98 L 920 752.09 L 960 755.66 L 1000 755.31 L 1040 751.07 L 1080 743.41 L 1120 733.17 L 1160 721.49 L 1200 709.64 L 1240 698.93 L 1280 690.54 L 1320 685.39 L 1360 684.05 L 1400 686.67 L 1440 692.96 L 1480 702.23 L 1520 713.45 L 1560 725.40 L 1600 736.74 L 1640 746.25 L 1680 752.87 L 1720 755.86 L 1760 754.91 L 1800 750.12 L 1840 742.01 L 1880 731.48 L 1920 719.68 L 1960 707.92 L 2000 697.49 L 2040 689.54 L 2080 684.94 L 2120 684.20 L 2160 687.40 L 2200 694.19 L 2240 703.82 L 2280 715.24 L 2320 727.17 L 2360 738.32 L 2400 747.45 L 2440 753.56 L 2480 755.98 L 2520 754.43 L 2560 749.09 L 2600 740.55 L 2640 729.75 L 2680 717.88 L 2720 706.24 L 2760 696.11 L 2800 688.61 L 2840 684.57 L 2880 684.43" stroke="#FFB86B" stroke-opacity="0.052" stroke-width="2" fill="none"/>
<path d="M 0 800.00 L 0 825.62 L 40 833.83 L 80 838.32 L 120 838.58 L 160 834.60 L 200 826.81 L 240 816.07 L 280 803.56 L 320 790.66 L 360 778.78 L 400 769.24 L 440 763.09 L 480 761.00 L 520 763.20 L 560 769.46 L 600 779.07 L 640 790.99 L 680 803.90 L 720 816.39 L 760 827.06 L 800 834.76 L 840 838.63 L 880 838.25 L 920 833.66 L 960 825.36 L 1000 814.27 L 1040 801.61 L 1080 788.77 L 1120 777.17 L 1160 768.08 L 1200 762.51 L 1240 761.06 L 1280 763.90 L 1320 770.71 L 1360 780.75 L 1400 792.91 L 1440 805.85 L 1480 818.14 L 1520 828.44 L 1560 835.60 L 1600 838.85 L 1640 837.82 L 1680 832.63 L 1720 823.84 L 1760 812.43 L 1800 799.65 L 1840 786.91 L 1880 775.61 L 1920 767.00 L 1960 762.01 L 2000 761.21 L 2040 764.68 L 2080 772.04 L 2120 782.47 L 2160 794.84 L 2200 807.77 L 2240 819.85 L 2280 829.74 L 2320 836.36 L 2360 838.97 L 2400 837.30 L 2440 831.52 L 2480 822.27 L 2520 810.57 L 2560 797.70 L 2600 785.09 L 2640 774.12 L 2680 766.00 L 2720 761.62 L 2760 761.47 L 2800 765.56 L 2840 773.44 L 2880 784.24" stroke="#FFB86B" stroke-opacity="0.044" stroke-width="2" fill="none"/>
</svg>