<svg xmlns="http://www.w3.org/2000/svg" width="2880" height="1200" viewBox="0 0 2880 1200" fill="none">
<defs>
<linearGradient id="lg2" x1="0" y1="0" x2="1" y2="1"><stop offset="0%" stop-color="#0e1630" stop-opacity="1"/>
<stop offset="100%" stop-color="#1b2552" stop-opacity="1"/></linearGradient>
<radialGradient id="rg2" cx="50%" cy="40%" r="80%"><stop offset="0%" stop-color="#8A7AFF" stop-opacity="0.6"/>
<stop offset="70%" stop-color="#00D1B2" stop-opacity="0.0"/></radialGradient>
</defs>
<rect width="2880" height="1200" fill="url(#lg2)"/><rect width="2880" height="1200" fill="url(#rg2)"/>
<polyline points="0.0,600.0 30.0,601.2 60.0,604.6 90.0,610.3 120.0,617.8 150.0,626.9 180.0,637.1 210.0,648.0 240.0,659.2 270.0,669.9 300.0,679.8 330.0,688.2 360.0,694.7 390.0,698.9 420.0,700.3 450.0,698.6 480.0,693.8 510.0,685.7 540.0,674.2 570.0,659.6 600.0,642.1 630.0,622.0 660.0,599.8 690.0,576.0 720.0,551.2 750.0,526.1 780.0,501.3 810.0,477.6 840.0,455.6 870.0,435.9 900.0,419.3 930.0,406.2 960.0,397.0 990.0,392.1 1020.0,391.8 1050.0,396.0 1080.0,404.9 1110.0,418.3 1140.0,435.8 1170.0,457.1 1200.0,481.8 1230.0,509.1 1260.0,538.5 1290.0,569.3 1320.0,600.6 1350.0,631.7 1380.0,661.8 1410.0,690.2 1440.0,716.3 1470.0,739.4 1500.0,759.0 1530.0,774.7 1560.0,786.2 1590.0,793.2 1620.0,795.8 1650.0,793.9 1680.0,787.9 1710.0,777.9 1740.0,764.4 1770.0,747.9 1800.0,729.0 1830.0,708.2 1860.0,686.2 1890.0,663.7 1920.0,641.3 1950.0,619.7 1980.0,599.5 2010.0,581.1 2040.0,565.0 2070.0,551.5 2100.0,540.9 2130.0,533.3 2160.0,528.7 2190.0,527.0 2220.0,528.1 2250.0,531.7 2280.0,537.4 2310.0,544.7 2340.0,553.2 2370.0,562.4 2400.0,571.8 2430.0,580.8 2460.0,589.0 2490.0,595.8 2520.0,601.0 2550.0,604.1 2580.0,605.1 2610.0,603.6 2640.0,599.8 2670.0,593.7 2700.0,585.4 2730.0,575.3 2760.0,563.6 2790.0,550.9 2820.0,537.5 2850.0,524.1 2880.0,511.2" fill="none" stroke="#00D1B2" stroke-opacity="0.35" stroke-width="3.00" />
<polyline points="0.0,670.1 30.0,688.6 60.0,706.5 90.0,723.2 120.0,738.2 150.0,750.8 180.0,760.6 210.0,767.0 240.0,769.8 270.0,768.6 300.0,763.3 330.0,753.9 360.0,740.5 390.0,723.2 420.0,702.3 450.0,678.4 480.0,651.9 510.0,623.4 540.0,593.7 570.0,563.5 600.0,533.4 630.0,504.3 660.0,476.9 690.0,451.9 720.0,429.9 750.0,411.5 780.0,397.2 810.0,387.3 840.0,382.1 870.0,381.6 900.0,385.9 930.0,394.7 960.0,407.9 990.0,425.1 1020.0,445.7 1050.0,469.2 1080.0,494.9 1110.0,522.1 1140.0,550.2 1170.0,578.4 1200.0,605.9 1230.0,632.1 1260.0,656.4 1290.0,678.2 1320.0,697.0 1350.0,712.5 1380.0,724.4 1410.0,732.6 1440.0,737.1 1470.0,737.8 1500.0,735.2 1530.0,729.4 1560.0,720.8 1590.0,710.0 1620.0,697.4 1650.0,683.5 1680.0,669.1 1710.0,654.5 1740.0,640.5 1770.0,627.4 1800.0,615.9 1830.0,606.1 1860.0,598.5 1890.0,593.2 1920.0,590.3 1950.0,589.8 1980.0,591.7 2010.0,595.7 2040.0,601.4 2070.0,608.7 2100.0,616.9 2130.0,625.7 2160.0,634.5 2190.0,642.8 2220.0,650.1 2250.0,655.9 2280.0,659.8 2310.0,661.4 2340.0,660.4 2370.0,656.6 2400.0,649.9 2430.0,640.3 2460.0,627.9 2490.0,613.0 2520.0,595.8 2550.0,576.8 2580.0,556.4 2610.0,535.2 2640.0,513.9 2670.0,493.1 2700.0,473.4 2730.0,455.4 2760.0,439.8 2790.0,427.2 2820.0,418.0 2850.0,412.5 2880.0,411.3" fill="none" stroke="#00D1B2" stroke-opacity="0.31" stroke-width="2.70" />
<polyline points="0.0,791.1 30.0,802.5 60.0,809.7 90.0,812.3 120.0,810.4 150.0,803.7 180.0,792.4 210.0,776.8 240.0,757.2 270.0,734.1 300.0,708.0 330.0,679.5 360.0,649.4 390.0,618.4 420.0,587.3 450.0,556.8 480.0,527.7 510.0,500.7 540.0,476.4 570.0,455.3 600.0,438.0 630.0,424.7 660.0,415.7 690.0,411.0 720.0,410.8 750.0,414.7 780.0,422.6 810.0,434.1 840.0,448.8 870.0,466.0 900.0,485.3 930.0,505.9 960.0,527.2 990.0,548.6 1020.0,569.5 1050.0,589.2 1080.0,607.3 1110.0,623.3 1140.0,636.8 1170.0,647.6 1200.0,655.5 1230.0,660.5 1260.0,662.6 1290.0,662.0 1320.0,659.0 1350.0,653.9 1380.0,647.1 1410.0,639.1 1440.0,630.4 1470.0,621.5 1500.0,612.9 1530.0,605.2 1560.0,598.7 1590.0,593.9 1620.0,591.0 1650.0,590.5 1680.0,592.3 1710.0,596.5 1740.0,603.1 1770.0,611.9 1800.0,622.7 1830.0,635.1 1860.0,648.6 1890.0,662.9 1920.0,677.3 1950.0,691.4 1980.0,704.4 2010.0,715.9 2040.0,725.3 2070.0,732.2 2100.0,736.0 2130.0,736.5 2160.0,733.5 2190.0,726.7 2220.0,716.2 2250.0,702.1 2280.0,684.6 2310.0,663.9 2340.0,640.6 2370.0,615.1 2400.0,588.1 2430.0,560.2 2460.0,532.1 2490.0,504.5 2520.0,478.2 2550.0,453.9 2580.0,432.2 2610.0,413.8 2640.0,399.2 2670.0,388.7 2700.0,382.8 2730.0,381.5 2760.0,385.1 2790.0,393.3 2820.0,406.0 2850.0,423.0 2880.0,443.8" fill="none" stroke="#00D1B2" stroke-opacity="0.27" stroke-width="2.40" />
<polyline points="0.0,808.6 30.0,797.7 60.0,782.7 90.0,764.0 120.0,742.3 150.0,718.1 180.0,692.1 210.0,665.0 240.0,637.5 270.0,610.4 300.0,584.3 330.0,559.9 360.0,537.7 390.0,518.2 420.0,501.9 450.0,489.0 480.0,479.6 510.0,473.9 540.0,471.8 570.0,473.1 600.0,477.5 630.0,484.7 660.0,494.2 690.0,505.6 720.0,518.2 750.0,531.6 780.0,545.2 810.0,558.3 840.0,570.6 870.0,581.5 900.0,590.7 930.0,597.9 960.0,602.7 990.0,605.2 1020.0,605.3 1050.0,603.2 1080.0,598.9 1110.0,592.7 1140.0,585.1 1170.0,576.5 1200.0,567.3 1230.0,558.0 1260.0,549.2 1290.0,541.4 1320.0,535.0 1350.0,530.6 1380.0,528.5 1410.0,529.0 1440.0,532.4 1470.0,538.8 1500.0,548.2 1530.0,560.5 1560.0,575.5 1590.0,592.9 1620.0,612.4 1650.0,633.4 1680.0,655.5 1710.0,677.8 1740.0,700.0 1770.0,721.2 1800.0,740.8 1830.0,758.2 1860.0,772.7 1890.0,784.0 1920.0,791.5 1950.0,794.9 1980.0,793.9 2010.0,788.5 2040.0,778.7 2070.0,764.5 2100.0,746.3 2130.0,724.5 2160.0,699.4 2190.0,671.8 2220.0,642.2 2250.0,611.4 2280.0,580.1 2310.0,549.1 2340.0,519.1 2370.0,490.9 2400.0,465.3 2430.0,442.6 2460.0,423.7 2490.0,408.8 2520.0,398.2 2550.0,392.3 2580.0,390.9 2610.0,394.2 2640.0,401.9 2670.0,413.7 2700.0,429.1 2730.0,447.8 2760.0,469.1 2790.0,492.4 2820.0,517.0 2850.0,542.2 2880.0,567.3" fill="none" stroke="#00D1B2" stroke-opacity="0.23" stroke-width="2.10" />
<polyline points="0.0,700.4 30.0,680.3 60.0,659.9 90.0,639.9 120.0,620.8 150.0,603.2 180.0,587.5 210.0,574.1 240.0,563.3 270.0,555.2 300.0,550.0 330.0,547.5 360.0,547.7 390.0,550.3 420.0,555.0 450.0,561.4 480.0,569.0 510.0,577.3 540.0,585.8 570.0,594.1 600.0,601.6 630.0,607.8 660.0,612.4 690.0,614.9 720.0,615.2 750.0,613.1 780.0,608.6 810.0,601.5 840.0,592.2 870.0,580.8 900.0,567.8 930.0,553.4 960.0,538.2 990.0,522.7 1020.0,507.5 1050.0,493.2 1080.0,480.3 1110.0,469.4 1140.0,461.1 1170.0,455.8 1200.0,453.8 1230.0,455.4 1260.0,460.8 1290.0,470.1 1320.0,483.1 1350.0,499.8 1380.0,519.8 1410.0,542.7 1440.0,568.0 1470.0,595.2 1500.0,623.5 1530.0,652.3 1560.0,680.8 1590.0,708.4 1620.0,734.2 1650.0,757.6 1680.0,778.0 1710.0,794.8 1740.0,807.5 1770.0,815.9 1800.0,819.5 1830.0,818.4 1860.0,812.5 1890.0,802.0 1920.0,787.1 1950.0,768.3 1980.0,746.0 2010.0,720.8 2040.0,693.4 2070.0,664.4 2100.0,634.7 2130.0,604.9 2160.0,575.7 2190.0,548.1 2220.0,522.4 2250.0,499.4 2280.0,479.6 2310.0,463.3 2340.0,450.9 2370.0,442.4 2400.0,438.0 2430.0,437.6 2460.0,441.0 2490.0,447.8 2520.0,457.8 2550.0,470.4 2580.0,485.2 2610.0,501.4 2640.0,518.6 2670.0,536.1 2700.0,553.4 2730.0,569.8 2760.0,584.8 2790.0,598.1 2820.0,609.3 2850.0,618.1 2880.0,624.3" fill="none" stroke="#00D1B2" stroke-opacity="0.19" stroke-width="1.80" />
<polyline points="0.0,604.4 30.0,600.0 60.0,597.9 90.0,598.2 120.0,600.8 150.0,605.5 180.0,612.0 210.0,620.1 240.0,629.2 270.0,639.0 300.0,648.8 330.0,658.3 360.0,666.8 390.0,673.8 420.0,678.9 450.0,681.7 480.0,681.8 510.0,679.0 540.0,673.1 570.0,664.0 600.0,652.0 630.0,637.0 660.0,619.4 690.0,599.6 720.0,578.1 750.0,555.3 780.0,531.9 810.0,508.6 840.0,486.0 870.0,464.8 900.0,445.7 930.0,429.1 960.0,415.9 990.0,406.3 1020.0,400.7 1050.0,399.5 1080.0,402.8 1110.0,410.6 1140.0,422.9 1170.0,439.4 1200.0,459.7 1230.0,483.5 1260.0,510.2 1290.0,539.1 1320.0,569.6 1350.0,600.8 1380.0,632.1 1410.0,662.7 1440.0,691.8 1470.0,718.7 1500.0,742.8 1530.0,763.5 1560.0,780.4 1590.0,793.0 1620.0,801.1 1650.0,804.7 1680.0,803.7 1710.0,798.2 1740.0,788.6 1770.0,775.2 1800.0,758.5 1830.0,738.9 1860.0,717.2 1890.0,694.0 1920.0,669.9 1950.0,645.6 1980.0,621.9 2010.0,599.2 2040.0,578.3 2070.0,559.6 2100.0,543.5 2130.0,530.3 2160.0,520.2 2190.0,513.3 2220.0,509.6 2250.0,509.0 2280.0,511.2 2310.0,516.0 2340.0,522.9 2370.0,531.4 2400.0,541.1 2430.0,551.5 2460.0,561.9 2490.0,571.9 2520.0,581.0 2550.0,588.7 2580.0,594.8 2610.0,598.7 2640.0,600.5 2670.0,599.9 2700.0,597.0 2730.0,591.8 2760.0,584.6 2790.0,575.6 2820.0,565.2 2850.0,553.9 2880.0,542.1" fill="none" stroke="#00D1B2" stroke-opacity="0.15" stroke-width="1.50" />
</svg>