<svg xmlns="http://www.w3.org/2000/svg" width="2880" height="1200" viewBox="0 0 2880 1200" fill="none">
<defs>
<radialGradient id="rg1" cx="50%" cy="40%" r="80%"><stop offset="0%" stop-color="#8A7AFF" stop-opacity="1"/>
<stop offset="60%" stop-color="#0B1220" stop-opacity="1"/>
<stop offset="100%" stop-color="#0B1220" stop-opacity="1"/></radialGradient>
</defs>
<rect width="2880" height="1200" fill="url(#rg1)"/>
<circle cx="2619" cy="228" r="0.6300129062672003" fill="#F5F2EA" fill-opacity="0.5512661251030155"/>
<circle cx="914" cy="285" r="1.483765456996815" fill="#F5F2EA" fill-opacity="0.7721847180826011"/>
<circle cx="2233" cy="178" r="1.3085910149388478" fill="#F5F2EA" fill-opacity="0.417480473714981"/>
<circle cx="383" cy="447" r="0.8791930720688875" fill="#F5F2EA" fill-opacity="0.7311103009774891"/>
<circle cx="2298" cy="407" r="1.4592235355068843" fill="#F5F2EA" fill-opacity="0.7857287354746297"/>
<circle cx="1718" cy="451" r="1.1390508555406242" fill="#F5F2EA" fill-opacity="0.5530048895268644"/>
<circle cx="26" cy="326" r="1.4377672739858722" fill="#F5F2EA" fill-opacity="0.5871377840848955"/>
<circle cx="636" cy="440" r="1.7486556866481378" fill="#F5F2EA" fill-opacity="0.5851269998119447"/>
<circle cx="379" cy="778" r="0.7160596522001568" fill="#F5F2EA" fill-opacity="0.8661219014911028"/>
<circle cx="2472" cy="541" r="1.5685539279292562" fill="#F5F2EA" fill-opacity="0.8013524826815999"/>
<circle cx="2196" cy="255" r="1.767738916775245" fill="#F5F2EA" fill-opacity="0.6081939074645943"/>
<circle cx="2261" cy="600" r="1.595285597103594" fill="#F5F2EA" fill-opacity="0.7401858638003354"/>
<circle cx="1481" cy="1182" r="0.8307463083079919" fill="#F5F2EA" fill-opacity="0.43825533185305754"/>
<circle cx="2708" cy="466" r="1.5276820089464302" fill="#F5F2EA" fill-opacity="0.9418718363634168"/>
<circle cx="953" cy="206" r="1.0561514700469994" fill="#F5F2EA" fill-opacity="0.6493756663026395"/>
<circle cx="1494" cy="333" r="1.0442171605402593" fill="#F5F2EA" fill-opacity="0.5152288669243182"/>
<circle cx="1093" cy="146" r="1.3309572068003859" fill="#F5F2EA" fill-opacity="0.49412625650895337"/>
<circle cx="1002" cy="334" r="1.154712254221339" fill="#F5F2EA" fill-opacity="0.5484713047313529"/>
<circle cx="2621" cy="1140" r="0.8635382087643229" fill="#F5F2EA" fill-opacity="0.578355503928427"/>
<circle cx="229" cy="469" r="1.5861631128081701" fill="#F5F2EA" fill-opacity="0.8427751904241678"/>
<circle cx="1643" cy="548" r="0.6794263262538567" fill="#F5F2EA" fill-opacity="0.9022248683020497"/>
<circle cx="2323" cy="644" r="0.8551518528649688" fill="#F5F2EA" fill-opacity="0.6745771927207524"/>
<circle cx="2633" cy="939" r="0.7714459085304752" fill="#F5F2EA" fill-opacity="0.4767966757390285"/>
<circle cx="2299" cy="1103" r="0.9152899302275224" fill="#F5F2EA" fill-opacity="0.7215222946229473"/>
<circle cx="2390" cy="817" r="1.0343957324563333" fill="#F5F2EA" fill-opacity="0.9485291778940385"/>
<circle cx="566" cy="1043" r="1.1922190018675574" fill="#F5F2EA" fill-opacity="0.8156801866435557"/>
<circle cx="449" cy="313" r="1.3529352500437082" fill="#F5F2EA" fill-opacity="0.8356436503996303"/>
<circle cx="1729" cy="130" r="1.0617207740094001" fill="#F5F2EA" fill-opacity="0.7277386355986204"/>
<circle cx="1917" cy="1083" r="0.9016969439781759" fill="#F5F2EA" fill-opacity="0.7042742429184081"/>
<circle cx="47" cy="234" r="1.4180524428318897" fill="#F5F2EA" fill-opacity="0.6953336817248373"/>
<circle cx="1092" cy="696" r="0.7338626083150517" fill="#F5F2EA" fill-opacity="0.6391208878680077"/>
<circle cx="1858" cy="6" r="1.7445791130252961" fill="#F5F2EA" fill-opacity="0.8817191172080068"/>
<circle cx="1078" cy="1025" r="1.5143546388624776" fill="#F5F2EA" fill-opacity="0.6792249210323789"/>
<circle cx="435" cy="611" r="1.6100032178069608" fill="#F5F2EA" fill-opacity="0.6792145850876987"/>
<circle cx="814" cy="313" r="1.0486966231093775" fill="#F5F2EA" fill-opacity="0.4888519696642344"/>
<circle cx="2172" cy="1" r="1.318733501352275" fill="#F5F2EA" fill-opacity="0.6687331394159213"/>
<circle cx="458" cy="743" r="1.6544662533878212" fill="#F5F2EA" fill-opacity="0.8574160411486487"/>
<circle cx="1259" cy="490" r="0.6695101997930251" fill="#F5F2EA" fill-opacity="0.8829052795622223"/>
<circle cx="322" cy="175" r="1.4782891138135534" fill="#F5F2EA" fill-opacity="0.8488127893810486"/>
<circle cx="2181" cy="257" r="0.7540697573997154" fill="#F5F2EA" fill-opacity="0.6614053079543022"/>
<circle cx="2251" cy="338" r="0.918067954728071" fill="#F5F2EA" fill-opacity="0.8798381725968916"/>
<circle cx="1733" cy="433" r="1.7146961916026124" fill="#F5F2EA" fill-opacity="0.815395858149693"/>
<circle cx="2825" cy="411" r="1.4555387673829463" fill="#F5F2EA" fill-opacity="0.6194457649985861"/>
<circle cx="2751" cy="764" r="1.125720100697405" fill="#F5F2EA" fill-opacity="0.6846667125695749"/>
<circle cx="495" cy="507" r="0.8696368044378688" fill="#F5F2EA" fill-opacity="0.5859470591811005"/>
<circle cx="2409" cy="1134" r="0.8761376791158924" fill="#F5F2EA" fill-opacity="0.5211195614483577"/>
<circle cx="290" cy="120" r="0.8747301405733853" fill="#F5F2EA" fill-opacity="0.8979810071533703"/>
<circle cx="1353" cy="145" r="1.216987343770307" fill="#F5F2EA" fill-opacity="0.5531624951805009"/>
<circle cx="1988" cy="438" r="1.2470807176737058" fill="#F5F2EA" fill-opacity="0.7978439112345339"/>
<circle cx="2338" cy="1180" r="1.167205231574153" fill="#F5F2EA" fill-opacity="0.8315406833599144"/>
<circle cx="1667" cy="389" r="0.7131909557902587" fill="#F5F2EA" fill-opacity="0.7624405122330646"/>
<circle cx="1451" cy="867" r="1.0933227312596858" fill="#F5F2EA" fill-opacity="0.8751102116032817"/>
<circle cx="221" cy="201" r="0.6727352088924163" fill="#F5F2EA" fill-opacity="0.8005174736426505"/>
<circle cx="447" cy="509" r="0.8299080865699848" fill="#F5F2EA" fill-opacity="0.6949571646506894"/>
<circle cx="574" cy="864" r="0.8201856429446799" fill="#F5F2EA" fill-opacity="0.654445437620532"/>
<circle cx="308" cy="907" r="1.5696266936780432" fill="#F5F2EA" fill-opacity="0.870781790857605"/>
<circle cx="401" cy="103" r="1.3825738727982264" fill="#F5F2EA" fill-opacity="0.6973233659551678"/>
<circle cx="60" cy="191" r="1.7116403796097535" fill="#F5F2EA" fill-opacity="0.866782653927868"/>
<circle cx="681" cy="832" r="1.182769350540862" fill="#F5F2EA" fill-opacity="0.51756101455955"/>
<circle cx="1642" cy="120" r="0.7975645456818322" fill="#F5F2EA" fill-opacity="0.40118545809328454"/>
<circle cx="1599" cy="543" r="1.7118216882712" fill="#F5F2EA" fill-opacity="0.8318211462367668"/>
<circle cx="1168" cy="866" r="1.435909804320195" fill="#F5F2EA" fill-opacity="0.8017779245785063"/>
<circle cx="2276" cy="996" r="0.785756190328877" fill="#F5F2EA" fill-opacity="0.5631893040220103"/>
<circle cx="239" cy="1186" r="1.4828846145468524" fill="#F5F2EA" fill-opacity="0.4335266643120837"/>
<circle cx="1284" cy="117" r="0.6601708047167443" fill="#F5F2EA" fill-opacity="0.6622336844099141"/>
<circle cx="2175" cy="322" r="0.6682554956744214" fill="#F5F2EA" fill-opacity="0.6793056733463801"/>
<circle cx="761" cy="140" r="1.3140421277400334" fill="#F5F2EA" fill-opacity="0.7713669044822495"/>
<circle cx="963" cy="826" r="0.743863936736549" fill="#F5F2EA" fill-opacity="0.8896580227711905"/>
<circle cx="1008" cy="1185" r="1.3134229842401295" fill="#F5F2EA" fill-opacity="0.7406598306826566"/>
<circle cx="1717" cy="1195" r="1.2782723086129075" fill="#F5F2EA" fill-opacity="0.5740034152871999"/>
<circle cx="1068" cy="418" r="1.4036711697237951" fill="#F5F2EA" fill-opacity="0.5728011245375668"/>
<circle cx="1087" cy="810" r="0.7570539385529478" fill="#F5F2EA" fill-opacity="0.7550254338607072"/>
<circle cx="1872" cy="647" r="1.714821998046617" fill="#F5F2EA" fill-opacity="0.9146538580946528"/>
<circle cx="38" cy="938" r="1.3453911065917115" fill="#F5F2EA" fill-opacity="0.7096465051014202"/>
<circle cx="409" cy="150" r="1.2451612849219529" fill="#F5F2EA" fill-opacity="0.678236581726821"/>
<circle cx="542" cy="714" r="1.6570370084237278" fill="#F5F2EA" fill-opacity="0.8835986333664985"/>
<circle cx="1513" cy="583" r="0.7892961988286784" fill="#F5F2EA" fill-opacity="0.8585597250518938"/>
<circle cx="1239" cy="1083" r="0.6093877285825895" fill="#F5F2EA" fill-opacity="0.8494072743135039"/>
<circle cx="1226" cy="212" r="1.7267160047125247" fill="#F5F2EA" fill-opacity="0.47386011291635227"/>
<circle cx="472" cy="219" r="1.4909000207771985" fill="#F5F2EA" fill-opacity="0.4854963503762448"/>
<circle cx="1154" cy="431" r="1.4611346245665575" fill="#F5F2EA" fill-opacity="0.5119785217800992"/>
<circle cx="2597" cy="540" r="1.2064908697175847" fill="#F5F2EA" fill-opacity="0.5381166886384418"/>
<circle cx="208" cy="189" r="1.3611413367710332" fill="#F5F2EA" fill-opacity="0.8561414491547206"/>
<circle cx="180" cy="7" r="1.0002678463261059" fill="#F5F2EA" fill-opacity="0.47195081338593625"/>
<circle cx="1072" cy="330" r="1.489477090017517" fill="#F5F2EA" fill-opacity="0.7034242316195152"/>
<circle cx="1751" cy="1148" r="0.611603639530008" fill="#F5F2EA" fill-opacity="0.4413841230405719"/>
<circle cx="2830" cy="305" r="1.254708347046627" fill="#F5F2EA" fill-opacity="0.8590272609373091"/>
<circle cx="2385" cy="1131" r="0.7777125426809792" fill="#F5F2EA" fill-opacity="0.47009503560517635"/>
<circle cx="1262" cy="746" r="1.678777786491108" fill="#F5F2EA" fill-opacity="0.8378672676884229"/>
<circle cx="163" cy="732" r="0.8520918460077049" fill="#F5F2EA" fill-opacity="0.5372413565726084"/>
<circle cx="421" cy="724" r="1.5361394902457315" fill="#F5F2EA" fill-opacity="0.8862740857980549"/>
<circle cx="1664" cy="316" r="1.7109165870834682" fill="#F5F2EA" fill-opacity="0.5302055327261472"/>
<circle cx="665" cy="362" r="1.6576994455959895" fill="#F5F2EA" fill-opacity="0.41363249904400384"/>
<circle cx="1360" cy="843" r="1.5626821667245667" fill="#F5F2EA" fill-opacity="0.8752352156064036"/>
<circle cx="1016" cy="546" r="0.7910374115768775" fill="#F5F2EA" fill-opacity="0.7857030034769519"/>
<circle cx="1566" cy="79" r="1.6303119016053382" fill="#F5F2EA" fill-opacity="0.5223385446501154"/>
<circle cx="1885" cy="716" r="0.9662290408063208" fill="#F5F2EA" fill-opacity="0.837440024534074"/>
<circle cx="932" cy="456" r="0.6283973216417418" fill="#F5F2EA" fill-opacity="0.5062213835802398"/>
<circle cx="1344" cy="570" r="1.6372235304363438" fill="#F5F2EA" fill-opacity="0.9317890072265986"/>
<circle cx="1143" cy="719" r="1.3697780863291533" fill="#F5F2EA" fill-opacity="0.6198231113980335"/>
<circle cx="2196" cy="678" r="1.727084568389659" fill="#F5F2EA" fill-opacity="0.4634379635182852"/>
<circle cx="1069" cy="365" r="1.2967076804864495" fill="#F5F2EA" fill-opacity="0.9409528150856978"/>
<circle cx="156" cy="222" r="1.3158855059852936" fill="#F5F2EA" fill-opacity="0.5901279114238902"/>
<circle cx="1284" cy="893" r="1.327450623967372" fill="#F5F2EA" fill-opacity="0.6812826828182129"/>
<circle cx="1577" cy="1180" r="0.8280945294027553" fill="#F5F2EA" fill-opacity="0.4244125935422771"/>
<circle cx="1786" cy="3" r="1.2239044182799026" fill="#F5F2EA" fill-opacity="0.8435809783350572"/>
<circle cx="2813" cy="403" r="1.037065766137517" fill="#F5F2EA" fill-opacity="0.43848559611947063"/>
<circle cx="2720" cy="676" r="1.347786491935691" fill="#F5F2EA" fill-opacity="0.7648631119460494"/>
<circle cx="510" cy="615" r="1.208547004842323" fill="#F5F2EA" fill-opacity="0.7667910972581513"/>
<circle cx="1336" cy="824" r="1.436650097033279" fill="#F5F2EA" fill-opacity="0.7049268627167364"/>
<circle cx="785" cy="861" r="1.397915321055326" fill="#F5F2EA" fill-opacity="0.608529902417398"/>
<circle cx="712" cy="1165" r="0.9611398494786785" fill="#F5F2EA" fill-opacity="0.701365467224634"/>
<circle cx="1" cy="622" r="0.9442964602427126" fill="#F5F2EA" fill-opacity="0.636438482494409"/>
<circle cx="2375" cy="659" r="1.1579858282964173" fill="#F5F2EA" fill-opacity="0.6431878896176441"/>
<circle cx="875" cy="1046" r="1.1678234230911917" fill="#F5F2EA" fill-opacity="0.8956494542055398"/>
<circle cx="695" cy="173" r="0.940543685991633" fill="#F5F2EA" fill-opacity="0.7651196099677493"/>
<circle cx="2536" cy="686" r="0.7120646400906752" fill="#F5F2EA" fill-opacity="0.9235998143488613"/>
<circle cx="962" cy="635" r="0.869568799196746" fill="#F5F2EA" fill-opacity="0.5095214629996172"/>
<circle cx="100" cy="94" r="0.8938110528940202" fill="#F5F2EA" fill-opacity="0.6613249893203428"/>
<circle cx="298" cy="932" r="1.0973292131972632" fill="#F5F2EA" fill-opacity="0.7463709594057425"/>
<circle cx="796" cy="786" r="1.1932526028125245" fill="#F5F2EA" fill-opacity="0.5341914417681414"/>
<circle cx="2687" cy="11" r="1.6711917914536398" fill="#F5F2EA" fill-opacity="0.8732423109823867"/>
<circle cx="436" cy="870" r="0.8626093641747834" fill="#F5F2EA" fill-opacity="0.8422604208952287"/>
<circle cx="2850" cy="1060" r="1.1574598614891025" fill="#F5F2EA" fill-opacity="0.7065731867183673"/>
<circle cx="497" cy="934" r="0.7600069266684346" fill="#F5F2EA" fill-opacity="0.6555537806240301"/>
<circle cx="2175" cy="1144" r="1.3145427821633038" fill="#F5F2EA" fill-opacity="0.9225217846437357"/>
<circle cx="1812" cy="1033" r="1.1120889082303866" fill="#F5F2EA" fill-opacity="0.8987701017508624"/>
<circle cx="1826" cy="325" r="1.492386530591502" fill="#F5F2EA" fill-opacity="0.6610709402526793"/>
<circle cx="1061" cy="506" r="1.607835465410305" fill="#F5F2EA" fill-opacity="0.5525212442219073"/>
<circle cx="2135" cy="992" r="1.3520981243781376" fill="#F5F2EA" fill-opacity="0.551028595804646"/>
<circle cx="317" cy="585" r="0.8813922936175624" fill="#F5F2EA" fill-opacity="0.5847161451417227"/>
<circle cx="2212" cy="165" r="0.7660488738193869" fill="#F5F2EA" fill-opacity="0.5271938138505028"/>
<circle cx="2842" cy="312" r="1.447702970033463" fill="#F5F2EA" fill-opacity="0.43532586789263295"/>
<circle cx="1669" cy="677" r="1.2511333686046986" fill="#F5F2EA" fill-opacity="0.6286758287567358"/>
<circle cx="847" cy="860" r="1.0673721752003296" fill="#F5F2EA" fill-opacity="0.8233876747730647"/>
<circle cx="2848" cy="40" r="1.6280784387647214" fill="#F5F2EA" fill-opacity="0.8210770168649382"/>
<circle cx="1558" cy="976" r="0.6070753003007917" fill="#F5F2EA" fill-opacity="0.5934673414695035"/>
<circle cx="1597" cy="858" r="1.2458646811322778" fill="#F5F2EA" fill-opacity="0.8040487334159967"/>
<circle cx="2470" cy="451" r="1.1858753730603007" fill="#F5F2EA" fill-opacity="0.5501144214697911"/>
<circle cx="1989" cy="59" r="1.0666286438953536" fill="#F5F2EA" fill-opacity="0.7678804913426044"/>
<circle cx="1656" cy="338" r="1.6086067956750703" fill="#F5F2EA" fill-opacity="0.9057478913679368"/>
<circle cx="2548" cy="1093" r="0.6323597422861652" fill="#F5F2EA" fill-opacity="0.6167111409868375"/>
<circle cx="2311" cy="55" r="0.7007369545944002" fill="#F5F2EA" fill-opacity="0.6357370233136022"/>
<circle cx="1891" cy="372" r="0.660341560186353" fill="#F5F2EA" fill-opacity="0.6085071253034767"/>
<circle cx="866" cy="931" r="0.9922149658575703" fill="#F5F2EA" fill-opacity="0.8186763393417149"/>
<circle cx="1552" cy="569" r="1.502411788265742" fill="#F5F2EA" fill-opacity="0.8575583568353999"/>
<circle cx="1033" cy="167" r="1.1643682034556564" fill="#F5F2EA" fill-opacity="0.8119633435955679"/>
<circle cx="213" cy="716" r="0.8690665988636979" fill="#F5F2EA" fill-opacity="0.43774010374902317"/>
<circle cx="2669" cy="82" r="1.5050798448714315" fill="#F5F2EA" fill-opacity="0.9222864529937939"/>
<circle cx="816" cy="41" r="1.3456027879033896" fill="#F5F2EA" fill-opacity="0.5311997180388982"/>
<circle cx="1939" cy="234" r="1.276763498316023" fill="#F5F2EA" fill-opacity="0.519880497498577"/>
<circle cx="2865" cy="524" r="1.5202777180274891" fill="#F5F2EA" fill-opacity="0.4922840288522913"/>
<circle cx="2487" cy="234" r="1.5333502634105192" fill="#F5F2EA" fill-opacity="0.49007119559195955"/>
<circle cx="1274" cy="221" r="1.2944216790110925" fill="#F5F2EA" fill-opacity="0.9108879426239168"/>
<circle cx="2358" cy="768" r="1.0759853298199529" fill="#F5F2EA" fill-opacity="0.7932580877772075"/>
<circle cx="311" cy="497" r="0.7222815665351718" fill="#F5F2EA" fill-opacity="0.8248644867231731"/>
<circle cx="2802" cy="247" r="1.5554726599202544" fill="#F5F2EA" fill-opacity="0.7112629054520238"/>
<circle cx="168" cy="711" r="1.2392942943726004" fill="#F5F2EA" fill-opacity="0.7638367373780457"/>
<circle cx="282" cy="1036" r="1.3770519048681662" fill="#F5F2EA" fill-opacity="0.4069586825912192"/>
<circle cx="1720" cy="1003" r="0.7266466447727983" fill="#F5F2EA" fill-opacity="0.9284331619680182"/>
<circle cx="2603" cy="941" r="1.4487703724472925" fill="#F5F2EA" fill-opacity="0.6395179297542224"/>
<circle cx="2137" cy="553" r="1.3390948248642613" fill="#F5F2EA" fill-opacity="0.9057897112965217"/>
<circle cx="1980" cy="952" r="1.1226893916046732" fill="#F5F2EA" fill-opacity="0.8020644178678172"/>
<circle cx="1099" cy="660" r="1.6220557920231982" fill="#F5F2EA" fill-opacity="0.8569020603898319"/>
<circle cx="354" cy="571" r="1.6579574208033265" fill="#F5F2EA" fill-opacity="0.5341248915550258"/>
<circle cx="1903" cy="1167" r="1.3323980450766248" fill="#F5F2EA" fill-opacity="0.6084441172705453"/>
<circle cx="117" cy="1012" r="1.6211434035749512" fill="#F5F2EA" fill-opacity="0.5000119214367305"/>
<circle cx="868" cy="726" r="1.557398828193716" fill="#F5F2EA" fill-opacity="0.587186363740356"/>
<circle cx="2441" cy="565" r="1.2669492335035006" fill="#F5F2EA" fill-opacity="0.6841449884432138"/>
<circle cx="782" cy="175" r="0.889627260447216" fill="#F5F2EA" fill-opacity="0.6235354685687856"/>
<circle cx="2274" cy="492" r="1.4287312073358276" fill="#F5F2EA" fill-opacity="0.7552465948575238"/>
<circle cx="2010" cy="917" r="1.551519441758781" fill="#F5F2EA" fill-opacity="0.45117934280506944"/>
<circle cx="907" cy="828" r="1.4301445863542424" fill="#F5F2EA" fill-opacity="0.5684133165715486"/>
<circle cx="2382" cy="755" r="1.16791258651143" fill="#F5F2EA" fill-opacity="0.6920070621301723"/>
<circle cx="1742" cy="1127" r="0.9969495566351162" fill="#F5F2EA" fill-opacity="0.7865702182021729"/>
<circle cx="1109" cy="627" r="0.9016844114411298" fill="#F5F2EA" fill-opacity="0.4663607366137682"/>
<circle cx="788" cy="646" r="0.7434656895060634" fill="#F5F2EA" fill-opacity="0.6947251809610624"/>
<circle cx="2826" cy="379" r="0.8298491676126537" fill="#F5F2EA" fill-opacity="0.8062325594299229"/>
<circle cx="1132" cy="1074" r="1.3161488886147623" fill="#F5F2EA" fill-opacity="0.9392808467543822"/>
<circle cx="795" cy="606" r="0.8729797961790657" fill="#F5F2EA" fill-opacity="0.49869284902697186"/>
<circle cx="57" cy="1093" r="0.751899551817578" fill="#F5F2EA" fill-opacity="0.4250336355407701"/>
<circle cx="223" cy="1133" r="0.9505639734633331" fill="#F5F2EA" fill-opacity="0.9192492881376573"/>
<circle cx="2612" cy="1005" r="0.7231051761453128" fill="#F5F2EA" fill-opacity="0.4067459718565294"/>
<circle cx="1164" cy="961" r="1.1744570503276777" fill="#F5F2EA" fill-opacity="0.5873882629081608"/>
<circle cx="210" cy="517" r="1.729276316121724" fill="#F5F2EA" fill-opacity="0.6627510529961282"/>
<circle cx="267" cy="820" r="1.1900958723492816" fill="#F5F2EA" fill-opacity="0.7173616360589499"/>
<circle cx="2811" cy="109" r="0.7820724083411477" fill="#F5F2EA" fill-opacity="0.8461281419512761"/>
<circle cx="1244" cy="174" r="1.7927017472522642" fill="#F5F2EA" fill-opacity="0.4651483592163039"/>
<circle cx="1704" cy="462" r="1.5308322476378609" fill="#F5F2EA" fill-opacity="0.6092079143806022"/>
<circle cx="1813" cy="608" r="1.6321999989914162" fill="#F5F2EA" fill-opacity="0.9445171932567388"/>
<circle cx="1250" cy="1164" r="1.3452327852865782" fill="#F5F2EA" fill-opacity="0.7352970017348217"/>
<circle cx="406" cy="425" r="1.350618036487924" fill="#F5F2EA" fill-opacity="0.5455553689095041"/>
<circle cx="332" cy="321" r="0.887838213209631" fill="#F5F2EA" fill-opacity="0.7035957350677675"/>
<circle cx="641" cy="5" r="1.090221087192032" fill="#F5F2EA" fill-opacity="0.7791541246816229"/>
<circle cx="1924" cy="596" r="0.6391678264571091" fill="#F5F2EA" fill-opacity="0.5584576892765292"/>
<circle cx="1158" cy="929" r="0.6854157121841751" fill="#F5F2EA" fill-opacity="0.528383093388014"/>
<circle cx="1083" cy="405" r="1.110166759325054" fill="#F5F2EA" fill-opacity="0.6995093082908183"/>
<circle cx="2652" cy="305" r="1.6900937342551274" fill="#F5F2EA" fill-opacity="0.8546471378075328"/>
<circle cx="292" cy="122" r="0.7991073470648696" fill="#F5F2EA" fill-opacity="0.5691864969378279"/>
<circle cx="2331" cy="591" r="1.1269841384084849" fill="#F5F2EA" fill-opacity="0.657783883651889"/>
<circle cx="1245" cy="824" r="1.731211488892849" fill="#F5F2EA" fill-opacity="0.675259697414859"/>
<circle cx="2022" cy="896" r="0.6965302222791612" fill="#F5F2EA" fill-opacity="0.4219234313009872"/>
<circle cx="1769" cy="660" r="1.3244563691350928" fill="#F5F2EA" fill-opacity="0.4142256908135845"/>
<circle cx="937" cy="1178" r="1.30454751805174" fill="#F5F2EA" fill-opacity="0.4114100009185436"/>
<circle cx="2753" cy="551" r="1.2914963815232963" fill="#F5F2EA" fill-opacity="0.819709952294438"/>
<circle cx="717" cy="963" r="1.222756609185125" fill="#F5F2EA" fill-opacity="0.6432261724311116"/>
<circle cx="1139" cy="371" r="1.7963345699190763" fill="#F5F2EA" fill-opacity="0.6397367428923517"/>
<circle cx="2014" cy="186" r="1.1640124739524222" fill="#F5F2EA" fill-opacity="0.6245914513865084"/>
<circle cx="1315" cy="214" r="1.629279713280423" fill="#F5F2EA" fill-opacity="0.581392014968431"/>
<circle cx="2841" cy="1014" r="0.9458613544337469" fill="#F5F2EA" fill-opacity="0.9198564467597657"/>
<circle cx="2253" cy="75" r="1.1457910903220754" fill="#F5F2EA" fill-opacity="0.5729844364435923"/>
<circle cx="1324" cy="237" r="1.7642216721702928" fill="#F5F2EA" fill-opacity="0.62229628135041"/>
<circle cx="2107" cy="2" r="1.3891924637797548" fill="#F5F2EA" fill-opacity="0.6984264768964572"/>
<circle cx="1692" cy="111" r="0.8250990496734325" fill="#F5F2EA" fill-opacity="0.5989786475334213"/>
<circle cx="2041" cy="905" r="1.5119886432732206" fill="#F5F2EA" fill-opacity="0.5119570310926507"/>
<circle cx="2249" cy="268" r="1.7132073130133376" fill="#F5F2EA" fill-opacity="0.640963852289808"/>
<circle cx="2860" cy="992" r="0.7457113000351439" fill="#F5F2EA" fill-opacity="0.9352307487019319"/>
<circle cx="2493" cy="490" r="1.451739390120311" fill="#F5F2EA" fill-opacity="0.5709125761163343"/>
<circle cx="56" cy="1131" r="1.089588824747883" fill="#F5F2EA" fill-opacity="0.5235853627006816"/>
<circle cx="464" cy="945" r="1.7364728908312275" fill="#F5F2EA" fill-opacity="0.7562403288310673"/>
</svg>