<svg xmlns="http://www.w3.org/2000/svg" width="256" height="256" viewBox="0 0 256 256" fill="none">
<defs>

</defs>
<rect width="256" height="256" fill="none"/>
<rect x="64" y="64" width="128" height="128" rx="8" fill="none" stroke="currentColor" stroke-width="10"/>
<rect x="88" y="44" width="8" height="16" fill="currentColor"/>
<rect x="104" y="44" width="8" height="16" fill="currentColor"/>
<rect x="120" y="44" width="8" height="16" fill="currentColor"/>
<rect x="136" y="44" width="8" height="16" fill="currentColor"/>
<rect x="152" y="44" width="8" height="16" fill="currentColor"/>
<rect x="88" y="196" width="8" height="16" fill="currentColor"/>
<rect x="104" y="196" width="8" height="16" fill="currentColor"/>
<rect x="120" y="196" width="8" height="16" fill="currentColor"/>
<rect x="136" y="196" width="8" height="16" fill="currentColor"/>
<rect x="152" y="196" width="8" height="16" fill="currentColor"/>
<rect x="44" y="88" width="16" height="8" fill="currentColor"/>
<rect x="44" y="104" width="16" height="8" fill="currentColor"/>
<rect x="44" y="120" width="16" height="8" fill="currentColor"/>
<rect x="44" y="136" width="16" height="8" fill="currentColor"/>
<rect x="44" y="152" width="16" height="8" fill="currentColor"/>
<rect x="196" y="88" width="16" height="8" fill="currentColor"/>
<rect x="196" y="104" width="16" height="8" fill="currentColor"/>
<rect x="196" y="120" width="16" height="8" fill="currentColor"/>
<rect x="196" y="136" width="16" height="8" fill="currentColor"/>
<rect x="196" y="152" width="16" height="8" fill="currentColor"/>
</svg>